<?xml version="1.0" standalone="no"?>
<!DOCTYPE svg PUBLIC "-//W3C//DTD SVG 20010904//EN"
 "http://www.w3.org/TR/2001/REC-SVG-20010904/DTD/svg10.dtd">
<svg version="1.0" xmlns="http://www.w3.org/2000/svg"
 width="512.000000pt" height="512.000000pt" viewBox="0 0 512.000000 512.000000"
 preserveAspectRatio="xMidYMid meet">
<metadata>
Created by potrace 1.14, written by Peter Selinger 2001-2017
</metadata>
<g transform="translate(0.000000,512.000000) scale(0.100000,-0.100000)"
fill="#000000" stroke="none">
<path d="M2430 4384 c-59 -26 -101 -65 -126 -118 -29 -62 -30 -88 -3 -145 l20
-45 -23 -22 c-13 -12 -137 -121 -275 -242 -273 -238 -313 -278 -352 -362 -21
-45 -25 -70 -25 -135 0 -95 22 -148 91 -225 l45 -50 681 0 682 0 50 38 c56 42
109 115 125 170 50 180 -78 411 -345 625 -165 132 -109 149 -437 -138 -156
-137 -287 -252 -292 -257 -6 -4 78 -8 185 -8 l194 0 105 85 105 85 87 -91 c87
-90 143 -180 136 -216 -3 -17 -31 -18 -563 -21 -308 -1 -565 0 -571 2 -53 20
111 192 430 451 364 295 382 311 400 355 41 103 -8 207 -124 259 -54 25 -149
27 -200 5z"/>
<path d="M1800 2690 l0 -120 85 0 85 0 0 -164 c0 -268 -27 -461 -92 -645 -16
-47 -72 -163 -124 -257 -144 -260 -159 -299 -159 -414 0 -85 3 -100 28 -145
15 -27 48 -72 73 -99 l46 -49 89 89 88 88 -26 34 c-17 22 -28 52 -31 81 -5 51
11 84 141 309 163 282 223 526 234 955 l6 217 448 0 449 0 0 120 0 120 -670 0
-670 0 0 -120z"/>
<path d="M2680 2290 c0 -370 82 -652 284 -984 36 -60 73 -134 82 -164 15 -50
15 -57 0 -91 -10 -20 -33 -53 -52 -74 l-35 -37 -405 0 -404 0 0 -110 0 -110
695 0 695 0 0 115 0 115 -121 0 c-112 0 -121 1 -114 18 5 9 13 42 18 73 19
107 -8 179 -211 559 -61 115 -103 232 -131 365 -22 107 -41 283 -41 378 l0 57
-130 0 -130 0 0 -110z"/>
</g>
</svg>
