<svg id="abstractplay-logo" data-name="Abstract Play Logo" xmlns="http://www.w3.org/2000/svg" viewBox="0 0 253.45 72" preserveAspectRatio="xMinYMid meet"><defs><style>.cls-1{fill:#999;}.cls-2{fill:#009fbf;}</style></defs><path class="cls-1" d="M15.58,57.82c3.6-6.3,4.11-16.81,4.13-22H37.18V31.15H11.07v4.72h3.4c0,5.34.26,12.86-3.44,19.35-4.35,7.64-6,10.49-1,15.2l3.35-3.53c-1.36-1.42-1.17-2.19-1.17-2.5C12.25,63.08,13.94,60.69,15.58,57.82Z"/><path class="cls-1" d="M11,26.63H37.21l.66-.43A6.22,6.22,0,0,0,41,21c.11-5.34-6.82-10.6-8.21-11.61l-1.68-1.2L19.67,18.25h7.47l4.14-3.33c2.21,1.91,4.47,4.49,4.43,6a.68.68,0,0,1-.2.5H13.36a1.56,1.56,0,0,1,0-.61C13.25,18.46,28.66,7.54,29.49,6a3.89,3.89,0,0,0,.57-1.8C30.06,2,27.79,0,25.3,0s-4.76,2-4.76,4.19a3.26,3.26,0,0,0,.86,2.17s-6.88,6.05-9.69,8.46-3.38,4-3.58,5.38C7.37,24.29,11,26.63,11,26.63Z"/><path class="cls-1" d="M40.24,67.54c1.78-3.3.06-6.35-3.35-12.32-4-7-3.47-16-3.47-16H28.3c-.09,1.55-.46,10.78,4,18.65,1.64,2.87,3.36,5.07,3.36,6.82,0,.89-.65,1.63-1.76,2.9H18V72H45.17V67.54Z"/><path class="cls-1" d="M12.19,64.39c.06-1.31,1.77-3.69,3.39-6.57C20,50,19.69,41,19.71,35.87"/><path class="cls-1" d="M55.06,45.92l.18-.94h3.27c.25,1.18,1.45,6.88,2.28,10.65h.09C62.9,52.08,66,46.2,66.69,45H69.9c0,.31-.1.63-.16.92L68.51,46c-.06,0-.08,0-.08.1-.55,3.23-1.19,7.25-1.77,10.7l1.4,0a7.54,7.54,0,0,1-.16.93l-2.14,0-2.15,0c.06-.32.1-.61.15-.91l1.46-.06a.14.14,0,0,0,.13-.09c.53-3,1.14-6.83,1.67-9.94h-.16c-2.86,5.37-4.7,8.64-6,10.76-.17,0-.57,0-.88,0-.53-2-1.29-5.29-2.39-10.86h-.14c-.57,3.23-1.21,6.9-1.78,10.11l1.72,0c0,.32-.1.61-.17.93l-2.38,0-1.8,0c.06-.32.1-.61.16-.91l1.25-.06a.14.14,0,0,0,.14-.09c.57-3.26,1.29-7.47,1.84-10.71Z"/><path class="cls-1" d="M74.91,55.37c-1.8,2-3.08,2.59-3.7,2.59a2.2,2.2,0,0,1-1.38-1,1.6,1.6,0,0,1-.17-.78,10,10,0,0,1,.6-2.95c.59-1.6,2-3.9,3.87-3.9a2.6,2.6,0,0,1,1.92.94h.12l.43-1c.37.1.72.2,1.07.32-.5,1.78-1.39,5.24-1.82,7.27a.09.09,0,0,0,.1.1,7.36,7.36,0,0,0,1.33-.33,5.43,5.43,0,0,1,.18.82,8.06,8.06,0,0,1-2.39.49,1,1,0,0,1-.53-.47c.08-.33.27-1.16.51-2Zm-3.08-2.64a9.27,9.27,0,0,0-.72,3.21c0,.57.29.86.62.86.93,0,3.12-2.13,3.48-3.13.13-.36.48-1.77.6-2.36a2,2,0,0,0-1.7-1C73.13,50.35,72.3,51.63,71.83,52.73Z"/><path class="cls-1" d="M81.16,53.49c2.28-2.72,4.21-4.2,5.14-4.2.23,0,.62.55.68,1.1a7.6,7.6,0,0,0-3.92,2.36v.09A3.57,3.57,0,0,1,84.59,55a10.31,10.31,0,0,0,.63,1.67.32.32,0,0,0,.29.15,7.49,7.49,0,0,0,1.24-.25c0,.25.08.55.1.82a9.27,9.27,0,0,1-2.61.41,10,10,0,0,1-.9-2.21c-.43-1.28-.77-2-1.18-2a.47.47,0,0,0-.33.17,11.48,11.48,0,0,0-1,1c-.22.8-.51,2.11-.71,2.86H78.75c.43-1.81,2.33-9.91,2.92-12.44L80,45.41l-.06-.84c1.32-.18,2.73-.57,2.85-.57a1.24,1.24,0,0,1,.53.43c-.39,1.63-1.47,5.94-2.26,9Z"/><path class="cls-1" d="M89.59,50.84a3.83,3.83,0,0,1,2.94-1.53,2.08,2.08,0,0,1,2.14,2.08,2.65,2.65,0,0,1-1.08,1.77,8.94,8.94,0,0,1-4.13.74,6.47,6.47,0,0,0-.26,1.51,1.27,1.27,0,0,0,1.33,1.45,7.45,7.45,0,0,0,3.1-1c.12.25.22.5.32.76A8,8,0,0,1,90,57.92a2.27,2.27,0,0,1-2.29-2.31A8,8,0,0,1,89.59,50.84Zm1,.26a5.8,5.8,0,0,0-1,2,6.32,6.32,0,0,0,2.78-.49,1.19,1.19,0,0,0-.31-2.32A1.94,1.94,0,0,0,90.61,51.1Z"/><path class="cls-1" d="M102.72,56.84a9.25,9.25,0,0,0,2.23-.39c0,.28.06.57.08.84a9.55,9.55,0,0,1-3,.61,1.84,1.84,0,0,1-1.59-1.21,1.23,1.23,0,0,1-.06-.36,34,34,0,0,1,.67-3.51c.15-.66.39-1.74.51-2.29H100c.06-.29.12-.61.17-.88.5,0,1-.08,1.46-.1a.17.17,0,0,0,.15-.14c.16-.55.34-1.25.49-1.82a4,4,0,0,1,1.28-.34s.06,0,.06.08c-.12.57-.32,1.45-.49,2.22,1,0,2,0,3,0a6.8,6.8,0,0,1-.2,1h-3c-.14.55-.39,1.69-.53,2.33a26.75,26.75,0,0,0-.57,3.2C101.83,56.59,102.19,56.84,102.72,56.84Z"/><path class="cls-1" d="M107.32,50.63c0-.28,0-.55,0-.83,1.54-.21,2.56-.49,2.74-.49s.41.32.51.49c-.45,1.93-1.43,6-1.67,7,0,.08,0,.14.06.14a8.34,8.34,0,0,0,1.49-.31,5.19,5.19,0,0,1,.14.82,8.43,8.43,0,0,1-2.45.43,1.44,1.44,0,0,1-.69-.61c.45-1.94,1.08-4.54,1.57-6.76Zm3.91-4.16a1.08,1.08,0,0,1-1,1,1,1,0,0,1-1-1,1.07,1.07,0,0,1,1.11-1A1,1,0,0,1,111.23,46.47Z"/><path class="cls-1" d="M112.14,50.67c0-.3,0-.57,0-.85,1.51-.23,2.31-.51,2.45-.51s.37.2.53.42c-.12.52-.26,1.13-.45,2l.16,0c1.49-1.83,2.78-2.46,3.56-2.46a1.61,1.61,0,0,1,1.2.85,1.08,1.08,0,0,1,.12.54,7.4,7.4,0,0,1-.16,1.12l.12,0c1.49-1.9,2.78-2.49,3.6-2.51a1.83,1.83,0,0,1,1.28,1,1.48,1.48,0,0,1,.12.59,32.55,32.55,0,0,1-1.43,5.88.07.07,0,0,0,0,.12,6.19,6.19,0,0,0,1.38-.29c.06.27.1.54.14.82a8,8,0,0,1-2.51.45c-.1,0-.42-.31-.53-.59.33-1,.84-2.84,1.07-3.76a14.56,14.56,0,0,0,.43-2.28.63.63,0,0,0-.66-.68c-1.08,0-3.16,2.25-3.45,3.41s-.61,2.45-.9,3.71c-.45,0-.89,0-1.34,0,.26-1,.89-3.55,1.1-4.52a13.14,13.14,0,0,0,.35-2.05.56.56,0,0,0-.56-.61c-1.16,0-3.18,2.23-3.47,3.39-.2.75-.71,3-.91,3.77-.43,0-.88,0-1.33,0,.43-1.77,1.16-5,1.67-7.24Z"/><path class="cls-1" d="M127.62,50.84a3.83,3.83,0,0,1,2.94-1.53,2.08,2.08,0,0,1,2.14,2.08,2.65,2.65,0,0,1-1.08,1.77,9,9,0,0,1-4.14.74,7,7,0,0,0-.25,1.51,1.27,1.27,0,0,0,1.33,1.45,7.45,7.45,0,0,0,3.1-1,7.12,7.12,0,0,1,.31.76,7.92,7.92,0,0,1-3.92,1.33,2.27,2.27,0,0,1-2.29-2.31A8,8,0,0,1,127.62,50.84Zm1,.26a5.8,5.8,0,0,0-1,2,6.32,6.32,0,0,0,2.78-.49,1.19,1.19,0,0,0-.31-2.32A1.94,1.94,0,0,0,128.64,51.1Z"/><path class="cls-1" d="M146,44.73a2,2,0,0,1-.79,1.23,4.07,4.07,0,0,0-1.36-.33,2,2,0,0,0-1.42.7,7.69,7.69,0,0,0-1.12,3.22l2.79,0a7,7,0,0,1-.22,1c-.76,0-1.92,0-2.74,0-.67,3.2-1.39,6.71-2.18,10.37-.45,0-.88,0-1.35,0,.74-3.61,1.47-7.12,2.14-10.37h-1.59c.05-.29.11-.63.17-.9.53,0,1-.06,1.53-.08a.13.13,0,0,0,.12-.14,5.9,5.9,0,0,1,1.65-3.61,4.45,4.45,0,0,1,3.23-1.31A2.89,2.89,0,0,1,146,44.73Z"/><path class="cls-1" d="M148.94,56.84a3.77,3.77,0,0,1-2.78,1.08,2.45,2.45,0,0,1-2-.84,3,3,0,0,1-.57-1.81,6.81,6.81,0,0,1,2-4.86,3.79,3.79,0,0,1,2.74-1.1,2.33,2.33,0,0,1,1.82.73,3.07,3.07,0,0,1,.75,2.18A6.49,6.49,0,0,1,148.94,56.84Zm-.71-.7a7.06,7.06,0,0,0,1.2-3.89,2.68,2.68,0,0,0-.31-1.47,1.15,1.15,0,0,0-1.08-.59,2.31,2.31,0,0,0-1.83,1.07,7.18,7.18,0,0,0-1.11,3.84,2.42,2.42,0,0,0,.31,1.41,1.22,1.22,0,0,0,1.12.55A2.27,2.27,0,0,0,148.23,56.14Z"/><path class="cls-1" d="M152,50.65c0-.3,0-.57,0-.85,1.26-.17,2.35-.49,2.45-.49s.41.28.51.43c-.13.55-.31,1.3-.57,2.44l.14.06c1.16-1.75,2.37-2.93,3.08-2.93a1.92,1.92,0,0,1,1,.28,2.43,2.43,0,0,1-.65,1.47,2.63,2.63,0,0,0-.8-.18c-.79,0-2.69,2.16-3.12,3.81-.16.6-.53,2.25-.71,3h-1.33c.37-1.61,1.14-5,1.61-7.24Z"/><path class="cls-1" d="M166.38,49.31a3.77,3.77,0,0,1,1.21.16.68.68,0,0,0,.3,0c.33,0,2.18,0,2.69,0a5.56,5.56,0,0,1,0,.9l-1.94.06v.08A2.56,2.56,0,0,1,169,52a4.7,4.7,0,0,1-.71,2.43A3.65,3.65,0,0,1,164.75,56c-.62.41-1.07.69-1.07,1s1,.49,2.41.61a5.34,5.34,0,0,1,2.21.49,1.73,1.73,0,0,1,.84,1.39c0,1.41-1.5,3-5,3-2.06,0-3.51-.73-3.51-1.94a1.23,1.23,0,0,1,.45-1c.65-.41,1-.63,2.13-1.26v-.11a1.14,1.14,0,0,1-.92-1.18c0-.2.08-.31,1.55-1.22v-.09a2.52,2.52,0,0,1-1.25-2.36A4,4,0,0,1,166.38,49.31Zm-.49,9.44-1.69-.22c-1.41.86-2.19,1.27-2.19,2s1.29,1.2,2.37,1.2c1.86,0,3.33-.65,3.33-1.93C167.71,59,167.26,58.9,165.89,58.75Zm-.49-3.5c1.16,0,2.15-1.35,2.15-3.23a2.63,2.63,0,0,0-.25-1.35,1.19,1.19,0,0,0-1.08-.55c-1.33,0-2.23,1.53-2.23,3.37C164,54.67,164.52,55.25,165.4,55.25Z"/><path class="cls-1" d="M175.81,55.37c-1.81,2-3.08,2.59-3.71,2.59a2.21,2.21,0,0,1-1.37-1,1.61,1.61,0,0,1-.18-.78,10.07,10.07,0,0,1,.61-2.95c.59-1.6,2-3.9,3.87-3.9a2.6,2.6,0,0,1,1.92.94h.11l.44-1c.37.1.72.2,1.07.32-.51,1.78-1.39,5.24-1.82,7.27a.09.09,0,0,0,.1.1,7.78,7.78,0,0,0,1.33-.33,5.43,5.43,0,0,1,.18.82,8.12,8.12,0,0,1-2.39.49,1,1,0,0,1-.53-.47c.08-.33.27-1.16.51-2Zm-3.08-2.64a9.27,9.27,0,0,0-.72,3.21c0,.57.29.86.62.86.92,0,3.12-2.13,3.48-3.13.13-.36.48-1.77.6-2.36a2,2,0,0,0-1.7-1C174,50.35,173.2,51.63,172.73,52.73Z"/><path class="cls-1" d="M180.21,50.67c0-.3,0-.57,0-.85,1.51-.23,2.31-.51,2.45-.51s.37.2.53.42c-.12.52-.26,1.13-.45,2l.15,0c1.49-1.83,2.79-2.46,3.57-2.46a1.58,1.58,0,0,1,1.2.85,1.08,1.08,0,0,1,.12.54,7.4,7.4,0,0,1-.16,1.12l.12,0c1.49-1.9,2.78-2.49,3.6-2.51a1.83,1.83,0,0,1,1.28,1,1.48,1.48,0,0,1,.12.59,32.55,32.55,0,0,1-1.43,5.88.07.07,0,0,0,.06.12,6.25,6.25,0,0,0,1.37-.29c.05.27.09.54.13.82a7.86,7.86,0,0,1-2.5.45c-.1,0-.42-.31-.54-.59.34-1,.85-2.84,1.09-3.76a15.79,15.79,0,0,0,.42-2.28.63.63,0,0,0-.66-.68c-1.08,0-3.16,2.25-3.45,3.41s-.61,2.45-.9,3.71c-.46,0-.89,0-1.34,0,.26-1,.88-3.55,1.1-4.52a13.14,13.14,0,0,0,.35-2.05.56.56,0,0,0-.57-.61c-1.15,0-3.17,2.23-3.46,3.39-.2.75-.71,3-.91,3.77-.43,0-.88,0-1.33,0,.43-1.77,1.16-5,1.66-7.24Z"/><path class="cls-1" d="M195.91,50.84a3.85,3.85,0,0,1,3-1.53A2.07,2.07,0,0,1,201,51.39a2.68,2.68,0,0,1-1.07,1.77,9,9,0,0,1-4.14.74,6.47,6.47,0,0,0-.26,1.51,1.27,1.27,0,0,0,1.34,1.45,7.41,7.41,0,0,0,3.09-1c.12.25.22.5.32.76a8,8,0,0,1-3.92,1.33,2.28,2.28,0,0,1-2.3-2.31A8,8,0,0,1,195.91,50.84Zm1,.26a5.8,5.8,0,0,0-1,2,6.4,6.4,0,0,0,2.79-.49,1.14,1.14,0,0,0,.8-1.06,1.13,1.13,0,0,0-1.11-1.26A2,2,0,0,0,196.93,51.1Z"/><path class="cls-1" d="M206.93,50.69a.28.28,0,0,0-.11-.24,1.87,1.87,0,0,0-1-.26,2.6,2.6,0,0,0-1.12.24,1.39,1.39,0,0,0-.72,1.2c0,.74.48,1,1.37,1.35,1.27.57,2,1.14,2,2.26A2.47,2.47,0,0,1,206,57.45a5.89,5.89,0,0,1-4.31.12c0-.78.08-1.59.12-2.39a6.19,6.19,0,0,1,.86,0l.14,1.41a.28.28,0,0,0,.11.24,2.92,2.92,0,0,0,2.47,0,1.3,1.3,0,0,0,.61-1.19c0-.82-.57-1.1-1.43-1.49-1.14-.49-2-1-2-2.2a2.54,2.54,0,0,1,1.47-2.13,4.91,4.91,0,0,1,2.16-.42,3.9,3.9,0,0,1,1.86.42c-.08.72-.14,1.51-.21,2.19-.24,0-.57,0-.85,0Z"/><path class="cls-2" d="M66.87,21.65h4.2V38.39h-4.2V36.62a8.14,8.14,0,0,1-2.47,1.69,7,7,0,0,1-2.68.51,7.44,7.44,0,0,1-5.61-2.51,8.79,8.79,0,0,1-2.37-6.26A9,9,0,0,1,56,23.7a7.31,7.31,0,0,1,5.57-2.48,7.08,7.08,0,0,1,2.83.57,7.74,7.74,0,0,1,2.44,1.71ZM62.45,25.1a4.27,4.27,0,0,0-3.23,1.37A5,5,0,0,0,57.93,30a5.05,5.05,0,0,0,1.31,3.57A4.27,4.27,0,0,0,62.47,35a4.32,4.32,0,0,0,3.28-1.38A5,5,0,0,0,67.06,30a4.88,4.88,0,0,0-1.31-3.54A4.39,4.39,0,0,0,62.45,25.1Z"/><path class="cls-2" d="M78.41,15.19V23.5a7.85,7.85,0,0,1,2.47-1.71,7,7,0,0,1,2.83-.57,7.33,7.33,0,0,1,5.57,2.48,9,9,0,0,1,2.29,6.35,8.79,8.79,0,0,1-2.37,6.26,7.45,7.45,0,0,1-5.62,2.51,7,7,0,0,1-2.69-.51,8.17,8.17,0,0,1-2.48-1.69v1.77H74.24V15.19Zm4.42,9.91a4.39,4.39,0,0,0-3.29,1.35A4.88,4.88,0,0,0,78.23,30a5,5,0,0,0,1.31,3.61A4.34,4.34,0,0,0,82.83,35a4.29,4.29,0,0,0,3.24-1.4A5,5,0,0,0,87.39,30a4.94,4.94,0,0,0-1.3-3.54A4.3,4.3,0,0,0,82.83,25.1Z"/><path class="cls-2" d="M104.64,24l-2.6,2.6A4.36,4.36,0,0,0,99.17,25a1.79,1.79,0,0,0-1.11.3.9.9,0,0,0-.4.75.91.91,0,0,0,.25.62,4.79,4.79,0,0,0,1.26.78l1.53.77A9,9,0,0,1,104,30.68a5.09,5.09,0,0,1-.73,6.65,6.23,6.23,0,0,1-4.39,1.49A7,7,0,0,1,93.07,36l2.59-2.81a6,6,0,0,0,1.73,1.39,3.88,3.88,0,0,0,1.76.53,2.1,2.1,0,0,0,1.34-.4,1.16,1.16,0,0,0,.51-.92c0-.65-.61-1.28-1.83-1.9l-1.42-.7Q93.69,29.1,93.69,26a4.45,4.45,0,0,1,1.53-3.39,5.54,5.54,0,0,1,3.91-1.41,6.8,6.8,0,0,1,3.08.72A6.73,6.73,0,0,1,104.64,24Z"/><path class="cls-2" d="M109.43,15.48h4.2v6.17h2.49v3.62h-2.49v9h-4.2v-9h-2.16V21.65h2.16Z"/><path class="cls-2" d="M118.91,21.65h3.61v2.11a4.55,4.55,0,0,1,1.55-1.9,3.75,3.75,0,0,1,2.12-.64,3.86,3.86,0,0,1,1.71.43l-1.31,3.62a2.8,2.8,0,0,0-1.21-.37,1.93,1.93,0,0,0-1.64,1.2c-.45.8-.67,2.37-.67,4.71l0,.81v6.77h-4.18Z"/><path class="cls-2" d="M141.46,21.65h4.21V38.39h-4.21V36.62A8.1,8.1,0,0,1,139,38.31a7,7,0,0,1-2.68.51,7.45,7.45,0,0,1-5.62-2.51,8.83,8.83,0,0,1-2.36-6.26,9,9,0,0,1,2.29-6.35,7.29,7.29,0,0,1,5.56-2.48,7,7,0,0,1,2.83.57,7.63,7.63,0,0,1,2.44,1.71Zm-4.41,3.45a4.27,4.27,0,0,0-3.24,1.37A5,5,0,0,0,132.52,30a5.05,5.05,0,0,0,1.31,3.57,4.27,4.27,0,0,0,3.23,1.4,4.36,4.36,0,0,0,3.29-1.38,5.07,5.07,0,0,0,1.3-3.61,4.92,4.92,0,0,0-1.3-3.54A4.41,4.41,0,0,0,137.05,25.1Z"/><path class="cls-2" d="M165.6,25,162.1,27a5.19,5.19,0,0,0-4.2-1.83,5.3,5.3,0,0,0-3.82,1.4,4.8,4.8,0,0,0-1.45,3.61,4.62,4.62,0,0,0,1.4,3.49A5.07,5.07,0,0,0,157.71,35a5.32,5.32,0,0,0,4.39-1.93l3.32,2.27a10.22,10.22,0,0,1-14.52.89A8.7,8.7,0,0,1,153,22.39a10.17,10.17,0,0,1,4.88-1.17,9.86,9.86,0,0,1,4.47,1A8.38,8.38,0,0,1,165.6,25Z"/><path class="cls-2" d="M169.94,15.48h4.2v6.17h2.5v3.62h-2.5V35h-4.2V25.27h-2.15V21.65h2.15Z"/><path class="cls-2" d="M192.56,21.6v1.85A7.93,7.93,0,0,1,195,21.74a7.08,7.08,0,0,1,2.83-.57,7.3,7.3,0,0,1,5.57,2.48,9,9,0,0,1,2.3,6.35,8.74,8.74,0,0,1-2.38,6.26,7.45,7.45,0,0,1-5.61,2.52,6.83,6.83,0,0,1-2.69-.52,8,8,0,0,1-2.48-1.68v8h-4.17V21.6ZM197,25.05a4.39,4.39,0,0,0-3.3,1.35,4.91,4.91,0,0,0-1.31,3.54,5,5,0,0,0,1.31,3.61,4.35,4.35,0,0,0,3.3,1.38,4.26,4.26,0,0,0,3.23-1.4A5,5,0,0,0,201.53,30a4.94,4.94,0,0,0-1.29-3.53A4.28,4.28,0,0,0,197,25.05Z"/><path class="cls-2" d="M208.73,14.82h4.2V34.11h-4.2Z"/><path class="cls-2" d="M229.11,21.6h4.2V38.34h-4.2V36.58a8.09,8.09,0,0,1-2.47,1.68,6.78,6.78,0,0,1-2.68.52,7.45,7.45,0,0,1-5.61-2.52A8.77,8.77,0,0,1,216,30a9,9,0,0,1,2.29-6.35,7.33,7.33,0,0,1,5.57-2.48,7,7,0,0,1,2.82.57,7.66,7.66,0,0,1,2.45,1.71Zm-4.42,3.45a4.23,4.23,0,0,0-3.23,1.38A4.94,4.94,0,0,0,220.17,30a5,5,0,0,0,1.31,3.57,4.27,4.27,0,0,0,3.23,1.4A4.32,4.32,0,0,0,228,33.55a5,5,0,0,0,1.31-3.61A4.91,4.91,0,0,0,228,26.4,4.39,4.39,0,0,0,224.69,25.05Z"/><path class="cls-2" d="M235.7,21.6H240l4.34,10.51,4.8-10.51h4.31L243,44.47h-4.34l3.45-7.37Z"/></svg>